# xmcd CD database file
#
# Track frame offsets:
#	150
#	29772
#	62115
#	90855
#	117725
#	145970
#	160577
#	190552
#	223437
#
# Disc length: 3583 seconds
#
# Revision: 0
# Processed by: cddbd v1.5PL3 Copyright (c) Steve Scherf et al.
# Submitted via: CDex 1.51
#
DISCID=820dfd09
DTITLE=Okazaki Yoshiro (岡崎好郎) - Hank's Mood
DYEAR=2003
DGENRE=Jazz
TTITLE0=Dee's Beat
TTITLE1=Bossanova#8
TTITLE2=Hank's Mood
TTITLE3=Portrait Of Jenny
TTITLE4=One For M
TTITLE5=All The Things You Are
TTITLE6=Nana's Dance
TTITLE7=You Don't Know What Love Is
TTITLE8=Will You Still Be Mine
EXTD=YEAR: 2003
EXTT0=
EXTT1=
EXTT2=
EXTT3=
EXTT4=
EXTT5=
EXTT6=
EXTT7=
EXTT8=
PLAYORDER=
